Underworld.Awakening.2012.PL.BRRip.XviD-RLF
~~~~~~~~~~~~~~~~~~~~~~~~~~~~~~~~~~~~~~~~~~~
                                            

General:


Complete name                    : rlf-awakening-pl.avi
Format                           : AVI
Format/Info                      : Audio Video Interleave
File size                        : 695 MiB
Duration                         : 1h 28mn
Overall bit rate                 : 1 097 Kbps
Language                         : Polish
Subs                             : N/A 
Encoder                          : Ralf

Video:

                     
Format                           : MPEG-4 Visual
Format profile                   : Advanced Simple@L5
Format settings, BVOP            : 2
Format settings, QPel            : No
Format settings, GMC             : No warppoints
Format settings, Matrix          : H.263
Muxing mode                      : Packed bitstream
Codec ID                         : XVID
Duration                         : 1h 28mn
Bit rate                         : 960 Kbps
Width                            : 688 pixels
Height                           : 288 pixels
Display aspect ratio             : 2.35:1
Frame rate                       : 23.976 fps
Color space                      : YUV
Chroma subsampling               : 4:2:0
Bit depth                        : 8 bits
Scan type                        : Progressive
Bits/(Pixel Frame)               : 0.202
Stream size                      : 608 MiB (87%)      
Stream size                      : Xvid 64

Audio:


Format                           : MPEG Audio
Codec ID/Hint                    : MP3
Duration                         : 1h 28mn
Bit rate mode                    : Constant
Bit rate                         : 128 Kbps
Channel(s)                       : 2 channels
Sampling rate                    : 48.0 KHz
Stream size                      : 81.1 MiB (12%)
Alignment                        : Split accross interleaves
Interleave, duration             : 42 ms (1.00 video frame)
Interleave, preload duration     : 500 ms
                   

MOVIE INFO:


Kate Beckinsale powraca w roli wampirzycy Seleny, ktora po latach uspienia budzi si┼ò w swiecie, w ktorym ludzie wiedza juΓöÉ o istnieniu 
wampirow i lykanow. Trwaja przygotowania do wielkiej wojny, skierowanej 
przeciwko dwom niesmiertelnym rasom. 

                                           
http://www.imdb.com/title/tt1496025/ 
http://www.filmweb.pl/film/Underworld%3A+Przebudzenie-2012-544185
                                               
SOURCE:

PSiG's 720p.BluRay.x264 (THX)

SCREENS:

